<svg width="1280" height="840" viewBox="0 0 1280 840" xmlns="http://www.w3.org/2000/svg" font-family="Inter, system-ui, sans-serif">

  <!-- Page background (slate-100) -->
  <rect width="1280" height="840" fill="#F1F5F9"/>

  <!-- ═══════════════════════════════════════
       SOURCE PANEL  x=0  w=290
  ═══════════════════════════════════════ -->
  <rect x="0" y="0" width="290" height="840" fill="#FFFFFF"/>
  <rect x="289" y="0" width="1" height="840" fill="#E2E8F0"/>

  <!-- Source header (bg-blue-50/30) -->
  <rect x="0" y="0" width="290" height="44" fill="#EEF5FF"/>
  <rect x="0" y="43" width="290" height="1" fill="#E2E8F0"/>
  <!-- "B" badge -->
  <rect x="16" y="10" width="24" height="24" rx="6" fill="#DBEAFE"/>
  <text x="28" y="26" text-anchor="middle" font-size="11" font-weight="700" fill="#1D4ED8">B</text>
  <!-- Label -->
  <text x="48" y="27" font-size="14" font-weight="700" fill="#1E40AF" letter-spacing="-0.3">Bronschema</text>
  <!-- BRON badge -->
  <rect x="144" y="13" width="36" height="18" rx="4" fill="#DBEAFE"/>
  <text x="162" y="25" text-anchor="middle" font-size="10" font-weight="700" fill="#1D4ED8" letter-spacing="0.5">BRON</text>
  <!-- Coverage -->
  <text x="280" y="27" text-anchor="end" font-size="11" fill="#94A3B8">1 van 5 gekoppeld</text>

  <!-- ── Field 1: customerId – ACCEPTED ── -->
  <rect x="0" y="44" width="290" height="36" fill="#F0FDF4"/>
  <rect x="0" y="44" width="2" height="36" fill="#16A34A"/>
  <rect x="0" y="79" width="290" height="1" fill="#F1F5F9"/>
  <circle cx="14" cy="62" r="3" fill="#16A34A"/>
  <text x="26" y="66" font-family="Consolas,Monaco,monospace" font-size="13" font-weight="500" fill="#1E293B">customerId</text>
  <rect x="210" y="52" width="24" height="16" rx="3" fill="#EFF6FF"/>
  <text x="222" y="63" text-anchor="middle" font-size="10" font-weight="500" fill="#2563EB">str</text>
  <!-- checkmark -->
  <circle cx="274" cy="62" r="8" fill="#DCFCE7"/>
  <text x="274" y="66" text-anchor="middle" font-size="10" font-weight="700" fill="#16A34A">✓</text>

  <!-- ── Field 2: orderDate – PENDING ── -->
  <rect x="0" y="80" width="290" height="36" fill="#F5F3FF"/>
  <rect x="0" y="80" width="2" height="36" fill="#6366F1"/>
  <rect x="0" y="115" width="290" height="1" fill="#F1F5F9"/>
  <circle cx="14" cy="98" r="3" fill="#6366F1"/>
  <text x="26" y="102" font-family="Consolas,Monaco,monospace" font-size="13" font-weight="500" fill="#1E293B">orderDate</text>
  <rect x="210" y="88" width="24" height="16" rx="3" fill="#EFF6FF"/>
  <text x="222" y="99" text-anchor="middle" font-size="10" font-weight="500" fill="#2563EB">str</text>
  <circle cx="274" cy="98" r="5" fill="#EEF2FF" stroke="#6366F1" stroke-width="1.5"/>

  <!-- ── Field 3: totalAmount – PENDING ── -->
  <rect x="0" y="116" width="290" height="36" fill="#F5F3FF"/>
  <rect x="0" y="116" width="2" height="36" fill="#6366F1"/>
  <rect x="0" y="151" width="290" height="1" fill="#F1F5F9"/>
  <circle cx="14" cy="134" r="3" fill="#6366F1"/>
  <text x="26" y="138" font-family="Consolas,Monaco,monospace" font-size="13" font-weight="500" fill="#1E293B">totalAmount</text>
  <rect x="210" y="124" width="26" height="16" rx="3" fill="#FFFBEB"/>
  <text x="223" y="135" text-anchor="middle" font-size="10" font-weight="500" fill="#B45309">num</text>
  <circle cx="274" cy="134" r="5" fill="#EEF2FF" stroke="#6366F1" stroke-width="1.5"/>

  <!-- ── Field 4: status – PENDING ── -->
  <rect x="0" y="152" width="290" height="36" fill="#F5F3FF"/>
  <rect x="0" y="152" width="2" height="36" fill="#6366F1"/>
  <rect x="0" y="187" width="290" height="1" fill="#F1F5F9"/>
  <circle cx="14" cy="170" r="3" fill="#6366F1"/>
  <text x="26" y="174" font-family="Consolas,Monaco,monospace" font-size="13" font-weight="500" fill="#1E293B">status</text>
  <rect x="210" y="160" width="28" height="16" rx="3" fill="#FFF1F2"/>
  <text x="224" y="171" text-anchor="middle" font-size="10" font-weight="500" fill="#E11D48">enum</text>
  <circle cx="274" cy="170" r="5" fill="#EEF2FF" stroke="#6366F1" stroke-width="1.5"/>

  <!-- ── Group header: address ── -->
  <rect x="0" y="188" width="290" height="26" fill="#F8FAFC"/>
  <rect x="0" y="213" width="290" height="1" fill="#E2E8F0"/>
  <text x="26" y="205" font-size="10" font-weight="600" fill="#94A3B8">ADDRESS</text>
  <text x="90" y="205" font-size="10" fill="#CBD5E1">▸</text>

  <!-- ── Field 5: address.city ── -->
  <rect x="0" y="214" width="290" height="36" fill="#FFFFFF"/>
  <rect x="0" y="249" width="290" height="1" fill="#F1F5F9"/>
  <circle cx="18" cy="232" r="2.5" fill="#CBD5E1"/>
  <text x="30" y="236" font-family="Consolas,Monaco,monospace" font-size="13" fill="#64748B">city</text>
  <rect x="210" y="222" width="24" height="16" rx="3" fill="#EFF6FF"/>
  <text x="222" y="233" text-anchor="middle" font-size="10" font-weight="500" fill="#2563EB">str</text>

  <!-- ── Field 6: address.street ── -->
  <rect x="0" y="250" width="290" height="36" fill="#FFFFFF"/>
  <rect x="0" y="285" width="290" height="1" fill="#F1F5F9"/>
  <circle cx="18" cy="268" r="2.5" fill="#CBD5E1"/>
  <text x="30" y="272" font-family="Consolas,Monaco,monospace" font-size="13" fill="#64748B">street</text>
  <rect x="210" y="258" width="24" height="16" rx="3" fill="#EFF6FF"/>
  <text x="222" y="269" text-anchor="middle" font-size="10" font-weight="500" fill="#2563EB">str</text>

  <!-- more fields hint -->
  <text x="145" y="330" text-anchor="middle" font-size="10" fill="#CBD5E1">+ 241 velden meer</text>


  <!-- ═══════════════════════════════════════
       CONNECTION ZONE  x=290  w=160
  ═══════════════════════════════════════ -->

  <!-- AI trigger button (floating) -->
  <rect x="310" y="8" width="120" height="28" rx="6" fill="#6366F1"/>
  <text x="370" y="27" text-anchor="middle" font-size="11" font-weight="600" fill="#FFFFFF">✦  AI Suggesties</text>

  <!-- accepted bezier: customerId → client_id -->
  <path d="M 279,62 C 330,40 400,40 451,62" fill="none" stroke="#6366F1" stroke-width="2" opacity="0.9"/>
  <circle cx="279" cy="62" r="4" fill="#6366F1"/>
  <circle cx="451" cy="62" r="4" fill="#6366F1"/>


  <!-- ═══════════════════════════════════════
       TARGET PANEL  x=450  w=290
  ═══════════════════════════════════════ -->
  <rect x="450" y="0" width="290" height="840" fill="#FFFFFF"/>
  <rect x="450" y="0" width="1" height="840" fill="#E2E8F0"/>
  <rect x="739" y="0" width="1" height="840" fill="#E2E8F0"/>

  <!-- Target header (bg-emerald-50/30) -->
  <rect x="450" y="0" width="290" height="44" fill="#EDFAF4"/>
  <rect x="450" y="43" width="290" height="1" fill="#E2E8F0"/>
  <rect x="466" y="10" width="24" height="24" rx="6" fill="#D1FAE5"/>
  <text x="478" y="26" text-anchor="middle" font-size="11" font-weight="700" fill="#047857">D</text>
  <text x="498" y="27" font-size="14" font-weight="700" fill="#065F46" letter-spacing="-0.3">Doelschema</text>
  <rect x="590" y="13" width="34" height="18" rx="4" fill="#D1FAE5"/>
  <text x="607" y="25" text-anchor="middle" font-size="10" font-weight="700" fill="#047857" letter-spacing="0.5">DOEL</text>
  <text x="730" y="27" text-anchor="end" font-size="11" fill="#94A3B8">1 van 5 gekoppeld</text>

  <!-- ── Field 1: client_id – ACCEPTED ── -->
  <rect x="450" y="44" width="290" height="36" fill="#F0FDF4"/>
  <rect x="450" y="44" width="2" height="36" fill="#16A34A"/>
  <rect x="450" y="79" width="290" height="1" fill="#F1F5F9"/>
  <circle cx="464" cy="62" r="3" fill="#16A34A"/>
  <text x="476" y="66" font-family="Consolas,Monaco,monospace" font-size="13" font-weight="500" fill="#1E293B">client_id</text>
  <rect x="604" y="52" width="24" height="16" rx="3" fill="#EFF6FF"/>
  <text x="616" y="63" text-anchor="middle" font-size="10" font-weight="500" fill="#2563EB">str</text>
  <rect x="634" y="52" width="28" height="16" rx="3" fill="#FEF2F2"/>
  <text x="648" y="63" text-anchor="middle" font-size="10" font-weight="700" fill="#DC2626">REQ</text>
  <circle cx="724" cy="62" r="8" fill="#DCFCE7"/>
  <text x="724" y="66" text-anchor="middle" font-size="10" font-weight="700" fill="#16A34A">✓</text>

  <!-- ── Field 2: datum_bestelling – PENDING ── -->
  <rect x="450" y="80" width="290" height="36" fill="#F5F3FF"/>
  <rect x="450" y="80" width="2" height="36" fill="#6366F1"/>
  <rect x="450" y="115" width="290" height="1" fill="#F1F5F9"/>
  <circle cx="464" cy="98" r="3" fill="#6366F1"/>
  <text x="476" y="102" font-family="Consolas,Monaco,monospace" font-size="13" font-weight="500" fill="#1E293B">datum_bestelling</text>
  <rect x="630" y="88" width="26" height="16" rx="3" fill="#FFFBEB"/>
  <text x="643" y="99" text-anchor="middle" font-size="10" font-weight="500" fill="#B45309">num</text>
  <circle cx="724" cy="98" r="5" fill="#EEF2FF" stroke="#6366F1" stroke-width="1.5"/>

  <!-- ── Field 3: totaal_bedrag_ct – PENDING ── -->
  <rect x="450" y="116" width="290" height="36" fill="#F5F3FF"/>
  <rect x="450" y="116" width="2" height="36" fill="#6366F1"/>
  <rect x="450" y="151" width="290" height="1" fill="#F1F5F9"/>
  <circle cx="464" cy="134" r="3" fill="#6366F1"/>
  <text x="476" y="138" font-family="Consolas,Monaco,monospace" font-size="13" font-weight="500" fill="#1E293B">totaal_bedrag_ct</text>
  <rect x="630" y="124" width="26" height="16" rx="3" fill="#FFFBEB"/>
  <text x="643" y="135" text-anchor="middle" font-size="10" font-weight="500" fill="#B45309">num</text>
  <circle cx="724" cy="134" r="5" fill="#EEF2FF" stroke="#6366F1" stroke-width="1.5"/>

  <!-- ── Field 4: status_code – PENDING ── -->
  <rect x="450" y="152" width="290" height="36" fill="#F5F3FF"/>
  <rect x="450" y="152" width="2" height="36" fill="#6366F1"/>
  <rect x="450" y="187" width="290" height="1" fill="#F1F5F9"/>
  <circle cx="464" cy="170" r="3" fill="#6366F1"/>
  <text x="476" y="174" font-family="Consolas,Monaco,monospace" font-size="13" font-weight="500" fill="#1E293B">status_code</text>
  <rect x="606" y="160" width="26" height="16" rx="3" fill="#FFFBEB"/>
  <text x="619" y="171" text-anchor="middle" font-size="10" font-weight="500" fill="#B45309">num</text>
  <circle cx="724" cy="170" r="5" fill="#EEF2FF" stroke="#6366F1" stroke-width="1.5"/>

  <!-- ── Field 5: woonplaats ── -->
  <rect x="450" y="188" width="290" height="36" fill="#FFFFFF"/>
  <rect x="450" y="223" width="290" height="1" fill="#F1F5F9"/>
  <circle cx="464" cy="206" r="2.5" fill="#CBD5E1"/>
  <text x="476" y="210" font-family="Consolas,Monaco,monospace" font-size="13" fill="#64748B">woonplaats</text>
  <rect x="608" y="196" width="24" height="16" rx="3" fill="#EFF6FF"/>
  <text x="620" y="207" text-anchor="middle" font-size="10" font-weight="500" fill="#2563EB">str</text>

  <text x="595" y="270" text-anchor="middle" font-size="10" fill="#CBD5E1">+ 184 velden meer</text>


  <!-- ═══════════════════════════════════════
       AI SUGGESTIONS PANEL  x=750  w=530
  ═══════════════════════════════════════ -->
  <rect x="750" y="0" width="530" height="840" fill="#FFFFFF"/>

  <!-- Panel header / tabs -->
  <rect x="750" y="0" width="530" height="44" fill="#FFFFFF"/>
  <rect x="750" y="43" width="530" height="1" fill="#E2E8F0"/>

  <!-- Tab: Koppelingen (inactive) -->
  <text x="770" y="27" font-size="13" fill="#64748B">Koppelingen</text>

  <!-- Tab: AI Suggesties (active) -->
  <text x="878" y="27" font-size="13" font-weight="600" fill="#4F46E5">AI Suggesties</text>
  <rect x="878" y="41" width="100" height="2" rx="1" fill="#6366F1"/>
  <!-- Count pill -->
  <rect x="978" y="15" width="22" height="16" rx="8" fill="#EEF2FF"/>
  <text x="989" y="26" text-anchor="middle" font-size="10" font-weight="700" fill="#6366F1">3</text>

  <!-- Regenerate button -->
  <rect x="1136" y="10" width="130" height="26" rx="5" fill="#EEF2FF"/>
  <text x="1201" y="27" text-anchor="middle" font-size="11" font-weight="500" fill="#4F46E5">↺  Genereer opnieuw</text>

  <!-- Stats bar -->
  <rect x="750" y="44" width="530" height="28" fill="#F8FAFF"/>
  <rect x="750" y="71" width="530" height="1" fill="#ECEEF5"/>
  <circle cx="768" cy="58" r="3.5" fill="#94A3B8"/>
  <text x="778" y="62" font-size="11" fill="#64748B">4 suggesties</text>
  <circle cx="850" cy="58" r="3.5" fill="#16A34A"/>
  <text x="860" y="62" font-size="11" fill="#15803D">1 geaccepteerd</text>
  <circle cx="952" cy="58" r="3.5" fill="#E11D48"/>
  <text x="962" y="62" font-size="11" fill="#9F1239">0 afgewezen</text>


  <!-- ── CARD 1: ACCEPTED (customerId → client_id) ── -->
  <rect x="750" y="72" width="530" height="52" fill="#F0FDF4"/>
  <rect x="750" y="72" width="3" height="52" fill="#16A34A"/>
  <rect x="750" y="123" width="530" height="1" fill="#D1FAE5"/>
  <!-- checkmark circle -->
  <circle cx="773" cy="98" r="9" fill="#DCFCE7" stroke="#86EFAC" stroke-width="1.5"/>
  <text x="773" y="102" text-anchor="middle" font-size="10" font-weight="700" fill="#16A34A">✓</text>
  <!-- field names -->
  <text x="792" y="94" font-family="Consolas,Monaco,monospace" font-size="13" font-weight="500" fill="#334155">customerId</text>
  <text x="878" y="94" font-size="14" fill="#94A3B8">→</text>
  <text x="896" y="94" font-family="Consolas,Monaco,monospace" font-size="13" font-weight="500" fill="#334155">client_id</text>
  <text x="792" y="110" font-size="10" fill="#86EFAC">Geaccepteerd · koppeling aangemaakt</text>
  <!-- confidence badge -->
  <rect x="1184" y="86" width="76" height="18" rx="4" fill="#DCFCE7"/>
  <text x="1222" y="98" text-anchor="middle" font-size="10" font-weight="600" fill="#15803D">Hoog · 97%</text>


  <!-- ── CARD 2: EXPANDED PENDING (orderDate → datum_bestelling) ── -->
  <rect x="750" y="124" width="530" height="230" fill="#FFFFFF"/>
  <rect x="750" y="124" width="3" height="230" fill="#6366F1"/>
  <rect x="750" y="353" width="530" height="1" fill="#E2E8F0"/>

  <!-- card header row -->
  <text x="770" y="150" font-family="Consolas,Monaco,monospace" font-size="13" font-weight="500" fill="#1E293B">orderDate</text>
  <text x="855" y="150" font-size="14" fill="#94A3B8">→</text>
  <text x="873" y="150" font-family="Consolas,Monaco,monospace" font-size="13" font-weight="500" fill="#1E293B">datum_bestelling</text>
  <rect x="1080" y="138" width="76" height="18" rx="4" fill="#EEF2FF"/>
  <text x="1118" y="150" text-anchor="middle" font-size="10" font-weight="600" fill="#4F46E5">Hoog · 91%</text>
  <text x="1254" y="150" font-size="12" fill="#94A3B8">▾</text>

  <!-- explanation -->
  <text x="770" y="170" font-size="11" fill="#475569">Beide velden representeren de besteldatum. Type-mismatch vereist een transformatie.</text>

  <!-- type mismatch warning -->
  <rect x="770" y="178" width="232" height="22" rx="4" fill="#FFFBEB"/>
  <rect x="770" y="178" width="3" height="22" rx="1.5" fill="#B45309"/>
  <text x="781" y="192" font-size="10" font-weight="500" fill="#92400E">Type-mismatch · string  →  integer</text>

  <!-- transformation header -->
  <text x="770" y="220" font-size="10" font-weight="700" fill="#4F46E5">AI TRANSFORMATIESUGGESTIE</text>
  <rect x="890" y="210" width="54" height="16" rx="8" fill="#EEF2FF"/>
  <text x="917" y="221" text-anchor="middle" font-size="9" fill="#6366F1">JSONata</text>

  <!-- code block -->
  <rect x="770" y="228" width="490" height="36" rx="5" fill="#F1F5F9"/>
  <rect x="770" y="228" width="4" height="36" rx="2" fill="#6366F1"/>
  <text x="784" y="250" font-family="Consolas,Monaco,monospace" font-size="12" fill="#1E293B">$floor($toMillis(orderDate) / 1000)</text>

  <!-- before / after example -->
  <text x="770" y="282" font-size="10" fill="#64748B">Voorbeeld:</text>
  <rect x="824" y="271" width="104" height="18" rx="3" fill="#F1F5F9"/>
  <text x="876" y="283" text-anchor="middle" font-family="Consolas,Monaco,monospace" font-size="10" fill="#334155">"2024-03-15"</text>
  <text x="936" y="283" font-size="12" fill="#94A3B8">→</text>
  <rect x="952" y="271" width="86" height="18" rx="3" fill="#F1F5F9"/>
  <text x="995" y="283" text-anchor="middle" font-family="Consolas,Monaco,monospace" font-size="10" fill="#334155">1710460800</text>

  <!-- accept / reject buttons -->
  <rect x="770" y="298" width="128" height="32" rx="6" fill="#DCFCE7" stroke="#BBF7D0" stroke-width="1"/>
  <text x="834" y="318" text-anchor="middle" font-size="12" font-weight="600" fill="#15803D">Accepteer</text>
  <rect x="910" y="298" width="90" height="32" rx="6" fill="#F8FAFC" stroke="#E2E8F0" stroke-width="1"/>
  <text x="955" y="318" text-anchor="middle" font-size="12" fill="#64748B">Afwijzen</text>


  <!-- ── CARD 3: COLLAPSED (totalAmount → totaal_bedrag_ct) ── -->
  <rect x="750" y="354" width="530" height="64" fill="#FFFFFF"/>
  <rect x="750" y="354" width="3" height="64" fill="#6366F1"/>
  <rect x="750" y="417" width="530" height="1" fill="#E2E8F0"/>

  <text x="770" y="377" font-family="Consolas,Monaco,monospace" font-size="13" font-weight="500" fill="#1E293B">totalAmount</text>
  <text x="858" y="377" font-size="14" fill="#94A3B8">→</text>
  <text x="876" y="377" font-family="Consolas,Monaco,monospace" font-size="13" font-weight="500" fill="#1E293B">totaal_bedrag_ct</text>
  <text x="1254" y="377" font-size="12" fill="#94A3B8">▸</text>
  <!-- badges -->
  <rect x="770" y="383" width="80" height="16" rx="3" fill="#FFFBEB"/>
  <text x="810" y="394" text-anchor="middle" font-size="9" font-weight="500" fill="#B45309">Transformatie</text>
  <rect x="858" y="383" width="68" height="16" rx="3" fill="#EEF2FF"/>
  <text x="892" y="394" text-anchor="middle" font-size="9" font-weight="600" fill="#4F46E5">Hoog · 89%</text>
  <!-- inline buttons -->
  <rect x="1108" y="371" width="76" height="26" rx="5" fill="#DCFCE7"/>
  <text x="1146" y="388" text-anchor="middle" font-size="11" font-weight="600" fill="#15803D">Accepteer</text>
  <rect x="1192" y="371" width="68" height="26" rx="5" fill="#F8FAFC" stroke="#E2E8F0" stroke-width="1"/>
  <text x="1226" y="388" text-anchor="middle" font-size="11" fill="#64748B">Afwijzen</text>


  <!-- ── CARD 4: COLLAPSED (status → status_code) ── -->
  <rect x="750" y="418" width="530" height="64" fill="#FFFFFF"/>
  <rect x="750" y="418" width="3" height="64" fill="#6366F1"/>
  <rect x="750" y="481" width="530" height="1" fill="#E2E8F0"/>

  <text x="770" y="441" font-family="Consolas,Monaco,monospace" font-size="13" font-weight="500" fill="#1E293B">status</text>
  <text x="820" y="441" font-size="14" fill="#94A3B8">→</text>
  <text x="838" y="441" font-family="Consolas,Monaco,monospace" font-size="13" font-weight="500" fill="#1E293B">status_code</text>
  <text x="1254" y="441" font-size="12" fill="#94A3B8">▸</text>
  <!-- badges -->
  <rect x="770" y="448" width="72" height="16" rx="3" fill="#FFF1F2"/>
  <text x="806" y="459" text-anchor="middle" font-size="9" font-weight="500" fill="#E11D48">Enum-mapping</text>
  <rect x="850" y="448" width="76" height="16" rx="3" fill="#FFFBEB"/>
  <text x="888" y="459" text-anchor="middle" font-size="9" font-weight="600" fill="#B45309">Middel · 72%</text>
  <!-- inline buttons -->
  <rect x="1108" y="435" width="76" height="26" rx="5" fill="#DCFCE7"/>
  <text x="1146" y="452" text-anchor="middle" font-size="11" font-weight="600" fill="#15803D">Accepteer</text>
  <rect x="1192" y="435" width="68" height="26" rx="5" fill="#F8FAFC" stroke="#E2E8F0" stroke-width="1"/>
  <text x="1226" y="452" text-anchor="middle" font-size="11" fill="#64748B">Afwijzen</text>


  <!-- ── VALIDATION RULES SECTION ── -->
  <rect x="750" y="482" width="530" height="28" fill="#F8FAFF"/>
  <rect x="750" y="509" width="530" height="1" fill="#E2E8F0"/>
  <text x="770" y="500" font-size="11" font-weight="700" fill="#1E293B">Validatieregels</text>
  <text x="854" y="500" font-size="10" fill="#94A3B8">client_id</text>
  <rect x="894" y="490" width="68" height="16" rx="8" fill="#EEF2FF"/>
  <text x="928" y="501" text-anchor="middle" font-size="9" font-weight="600" fill="#6366F1">AI suggestie</text>

  <!-- Validation rule 1 -->
  <rect x="750" y="510" width="530" height="56" fill="#FFFFFF"/>
  <rect x="750" y="510" width="3" height="56" fill="#6366F1"/>
  <rect x="750" y="565" width="530" height="1" fill="#F1F5F9"/>
  <text x="770" y="530" font-size="11" font-weight="500" fill="#1E293B">Waarde mag niet in het verleden liggen</text>
  <rect x="770" y="536" width="60" height="16" rx="8" fill="#EEF2FF"/>
  <text x="800" y="547" text-anchor="middle" font-size="9" fill="#6366F1">AI suggestie</text>
  <rect x="838" y="536" width="34" height="16" rx="8" fill="#FEE2E2"/>
  <text x="855" y="547" text-anchor="middle" font-size="9" font-weight="600" fill="#DC2626">error</text>
  <text x="770" y="558" font-size="9" fill="#94A3B8" font-style="italic">"Must not be a past date" — veldbeschrijving</text>
  <rect x="1140" y="524" width="66" height="22" rx="4" fill="#DCFCE7"/>
  <text x="1173" y="539" text-anchor="middle" font-size="10" font-weight="600" fill="#15803D">Accepteer</text>
  <rect x="1214" y="524" width="56" height="22" rx="4" fill="#F8FAFC" stroke="#E2E8F0" stroke-width="1"/>
  <text x="1242" y="539" text-anchor="middle" font-size="10" fill="#64748B">Afwijzen</text>

  <!-- Validation rule 2 -->
  <rect x="750" y="566" width="530" height="56" fill="#FFFFFF"/>
  <rect x="750" y="566" width="3" height="56" fill="#6366F1"/>
  <rect x="750" y="621" width="530" height="1" fill="#F1F5F9"/>
  <text x="770" y="586" font-size="11" font-weight="500" fill="#1E293B">Verplicht wanneer status 'ACTIVE' is</text>
  <rect x="770" y="592" width="60" height="16" rx="8" fill="#EEF2FF"/>
  <text x="800" y="603" text-anchor="middle" font-size="9" fill="#6366F1">AI suggestie</text>
  <rect x="838" y="592" width="48" height="16" rx="8" fill="#FEF3C7"/>
  <text x="862" y="603" text-anchor="middle" font-size="9" font-weight="600" fill="#D97706">warning</text>
  <text x="770" y="614" font-size="9" fill="#94A3B8" font-style="italic">"Required when status is ACTIVE" — veldbeschrijving</text>
  <rect x="1140" y="580" width="66" height="22" rx="4" fill="#DCFCE7"/>
  <text x="1173" y="595" text-anchor="middle" font-size="10" font-weight="600" fill="#15803D">Accepteer</text>
  <rect x="1214" y="580" width="56" height="22" rx="4" fill="#F8FAFC" stroke="#E2E8F0" stroke-width="1"/>
  <text x="1242" y="595" text-anchor="middle" font-size="10" fill="#64748B">Afwijzen</text>

  <!-- bottom empty area -->
  <rect x="750" y="622" width="530" height="218" fill="#FAFAFA"/>
  <text x="1015" y="730" text-anchor="middle" font-size="10" fill="#E2E8F0">Scrol voor meer...</text>

</svg>
